<?xml version="1.0" encoding="UTF-8"?>
<svg width="16px" height="16px" viewBox="0 0 16 16" version="1.1" xmlns="http://www.w3.org/2000/svg" xmlns:xlink="http://www.w3.org/1999/xlink">
    <title>删 除</title>
    <g id="数据中台" stroke="none" stroke-width="1" fill="none" fill-rule="evenodd">
        <g id="分发部" transform="translate(-1738.000000, -351.000000)" fill-rule="nonzero">
            <g id="内容区域" transform="translate(259.000000, 60.000000)">
                <g id="右侧内容" transform="translate(291.000000, 60.000000)">
                    <g id="表格" transform="translate(20.000000, 119.000000)">
                        <g id="周志刚备份" transform="translate(0.000000, 96.000000)">
                            <g id="编组-2" transform="translate(1168.000000, 14.000000)">
                                <g id="删-除" transform="translate(0.000000, 2.000000)">
                                    <rect id="矩形" fill="currentcolor" opacity="0" x="0" y="0" width="16" height="16"></rect>
                                    <path d="M12.1460938,12.347478 C12.1460938,12.7606085 11.790625,13.0968775 11.3543125,13.0968775 L5.64609375,13.0968775 C5.20885896,13.0962426 4.85457737,12.7610967 4.85390625,12.347478 L4.85390625,4.39231385 L12.1460938,4.39231385 L12.1460938,12.347478 L12.1460938,12.347478 Z M6.43828125,3.04723779 C6.43828125,2.96076861 6.509375,2.89351481 6.60078125,2.89351481 L10.409375,2.89351481 C10.5007812,2.89351481 10.5714688,2.96076861 10.5714688,3.04723779 L10.5714688,3.49879904 L6.43828125,3.49879904 L6.43828125,3.04723779 Z M14.5226563,3.49879904 L11.5164063,3.49879904 L11.5164063,3.04723779 C11.5164063,2.47077662 11.01875,2 10.409375,2 L6.60078125,2 C5.98994091,2.00126814 5.49509055,2.46939043 5.49375,3.04723779 L5.49375,3.49879904 L2.47734375,3.49879904 C2.21328125,3.49879904 2,3.70056045 2,3.95036029 C2,4.20016013 2.21328125,4.40192154 2.47734375,4.40192154 L3.89921875,4.40192154 L3.89921875,12.347478 C3.89921875,13.2601407 4.68132133,14 5.64609375,14 L11.3539063,14 C12.3186787,14 13.1007812,13.2601407 13.1007812,12.347478 L13.1007812,4.39231385 L14.5226562,4.39231385 C14.7867187,4.39231385 15,4.19055244 15,3.9407526 C15,3.69095276 14.7867188,3.49879904 14.5226563,3.49879904 Z M8.5,11.7421938 C8.7640625,11.7421938 8.97734375,11.5404323 8.97734375,11.2906325 L8.97734375,6.48678943 C8.97734375,6.23698959 8.76446875,6.03522818 8.5,6.03522818 C8.2359375,6.03522818 8.02265625,6.23698959 8.02265625,6.48678943 L8.02265625,11.2906325 C8.02265625,11.5404323 8.2359375,11.7421938 8.5,11.7421938 M6.27578125,11.7421938 C6.53984375,11.7421938 6.753125,11.5404323 6.753125,11.2906325 L6.753125,6.48678943 C6.753125,6.23698959 6.53984375,6.03522818 6.27578125,6.03522818 C6.01171875,6.03522818 5.7984375,6.23698959 5.7984375,6.48678943 L5.7984375,11.2906325 C5.80859375,11.5404323 6.021875,11.7421938 6.27578125,11.7421938 M10.7242188,11.7421938 C10.9882812,11.7421938 11.2019688,11.5404323 11.2019688,11.2906325 L11.2019688,6.48678943 C11.2019688,6.23698959 10.9886875,6.03522818 10.7242188,6.03522818 C10.4605625,6.03522818 10.246875,6.23698959 10.246875,6.48678943 L10.246875,11.2906325 C10.246875,11.5404323 10.4601563,11.7421938 10.7242188,11.7421938" id="形状" fill="currentcolor"></path>
                                </g>
                            </g>
                        </g>
                    </g>
                </g>
            </g>
        </g>
    </g>
</svg>
