<?xml version="1.0" encoding="UTF-8"?>
<svg width="12px" height="12px" viewBox="0 0 12 12" version="1.1" xmlns="http://www.w3.org/2000/svg" xmlns:xlink="http://www.w3.org/1999/xlink">
    <title>执行器管理-搜索</title>
    <g id="样本标注分系统1.0" stroke="none" stroke-width="1" fill="none" fill-rule="evenodd">
        <g id="样本数据引接" transform="translate(-1582.000000, -209.000000)" fill="#FFFFFF" fill-rule="nonzero">
            <g id="内容区域" transform="translate(260.000000, 60.000000)">
                <g id="编组-11" transform="translate(20.000000, 136.000000)">
                    <g id="输入框备份-2" transform="translate(1292.000000, 0.000000)">
                        <g id="编组-5" transform="translate(10.000000, 9.000000)">
                            <g id="执行器管理-搜索" transform="translate(0.000000, 4.000000)">
                                <rect id="矩形" opacity="0" x="0" y="0" width="12" height="12"></rect>
                                <path d="M10.7475,9.615 L8.8575,7.725 C10.1487441,5.84932078 9.7903989,3.29755349 8.03248224,1.8500685 C6.27456558,0.402583504 3.70145678,0.540564226 2.1084162,2.16774139 C0.515375626,3.79491855 0.431973325,6.37037416 1.91639916,8.0972105 C3.400825,9.82404683 5.95961541,10.1282165 7.8075,8.7975 L9.6825,10.6725 C9.98007021,10.9273326 10.4236456,10.9101992 10.7006724,10.6331724 C10.9776992,10.3561456 10.9948326,9.91257021 10.74,9.615 L10.7475,9.615 Z M3.345,7.3275 C2.26469703,6.24655419 2.26504444,4.4945694 3.34577602,3.41405211 C4.42650759,2.33353482 6.17849241,2.33353482 7.25922398,3.41405211 C8.33995556,4.4945694 8.34030297,6.24655419 7.26,7.3275 C6.74094583,7.84686304 6.03677189,8.13866414 5.3025,8.13866414 C4.56822811,8.13866414 3.86405417,7.84686304 3.345,7.3275 L3.345,7.3275 Z" id="形状"></path>
                            </g>
                        </g>
                    </g>
                </g>
            </g>
        </g>
    </g>
</svg>